<svg id="Iconly_Light-Outline_Discovery" data-name="Iconly/Light-Outline/Discovery" xmlns="http://www.w3.org/2000/svg" width="24" height="24" viewBox="0 0 24 24">
  <g id="Discovery" transform="translate(2 2)">
    <path id="Combined_Shape" data-name="Combined Shape" d="M0,10.361A10.361,10.361,0,1,1,10.361,20.722,10.372,10.372,0,0,1,0,10.361Zm1.5,0a8.861,8.861,0,1,0,8.86-8.86A8.871,8.871,0,0,0,1.5,10.361Zm4.99,3.873a.746.746,0,0,1-.185-.754L7.9,8.391A.745.745,0,0,1,8.389,7.9l5.089-1.593a.735.735,0,0,1,.225-.036.751.751,0,0,1,.715.975l-1.592,5.089a.751.751,0,0,1-.492.491L7.245,14.418a.753.753,0,0,1-.755-.184ZM9.212,9.212,8.165,12.56l3.346-1.049,1.048-3.347Z" transform="translate(0 0)" fill="#ff422d"/>
  </g>
</svg>
