<svg id="Iconly_Light-Outline_Notification" data-name="Iconly/Light-Outline/Notification" xmlns="http://www.w3.org/2000/svg" width="24" height="24" viewBox="0 0 24 24">
  <g id="Notification" transform="translate(3 1)">
    <path id="Combined_Shape" data-name="Combined Shape" d="M9.2,21.5a4,4,0,0,1-2.987-1.392.749.749,0,0,1,1.115-1A2.523,2.523,0,0,0,9.2,20h0a2.532,2.532,0,0,0,1.88-.895.75.75,0,0,1,1.115,1,4.016,4.016,0,0,1-3,1.391ZM0,13.035A5.478,5.478,0,0,1,.944,9.811,5.118,5.118,0,0,0,1.816,6.7C1.816,3.461,4.8,0,9.247,0s7.431,3.461,7.431,6.7a5.118,5.118,0,0,0,.872,3.116,5.429,5.429,0,0,1,.947,3.16c-.349,4.043-4.575,4.378-9.25,4.378S.345,17.018,0,13.035ZM3.316,6.7a6.522,6.522,0,0,1-1.086,3.888A3.95,3.95,0,0,0,1.5,12.971a2.322,2.322,0,0,0,1.562,2.146c1.159.5,3.127.732,6.188.732,6.3,0,7.587-1.034,7.754-2.942a3.9,3.9,0,0,0-.735-2.322A6.531,6.531,0,0,1,15.178,6.7c0-2.457-2.435-5.195-5.931-5.195S3.316,4.238,3.316,6.7Z" transform="translate(0)" fill="#ff422d"/>
  </g>
</svg>
