<svg id="Iconly_Light-Outline_Camera" data-name="Iconly/Light-Outline/Camera" xmlns="http://www.w3.org/2000/svg" width="24" height="24" viewBox="0 0 24 24">
  <g id="Camera" transform="translate(2 3)">
    <path id="Combined_Shape" data-name="Combined Shape" d="M4.97,17.817A4.975,4.975,0,0,1,0,12.847v-5.8a3.9,3.9,0,0,1,3.9-3.9,1.183,1.183,0,0,0,.778-.36l.011-.013.005-.007L4.743,2.7l.451-.866A2.942,2.942,0,0,1,6.682.355,11.239,11.239,0,0,1,10,0a11.232,11.232,0,0,1,3.317.355,2.937,2.937,0,0,1,1.489,1.477l.452.867.029.046.038.052a1.179,1.179,0,0,0,.778.36,3.9,3.9,0,0,1,3.9,3.9v5.8a4.975,4.975,0,0,1-4.97,4.97ZM7.236,1.749a1.636,1.636,0,0,0-.728.806L6.124,3.3l-.1.172a2.109,2.109,0,0,1-.248.341A2.69,2.69,0,0,1,3.9,4.657l-.164.005A2.4,2.4,0,0,0,1.5,7.052v5.8a3.474,3.474,0,0,0,3.469,3.47H15.03a3.475,3.475,0,0,0,3.47-3.47v-5.8a2.4,2.4,0,0,0-2.4-2.4l-.174-.007a2.677,2.677,0,0,1-1.71-.839,2.011,2.011,0,0,1-.246-.337c-.012-.019-.026-.043-.041-.073l-.116-.218-.324-.627a1.641,1.641,0,0,0-.729-.806l-.12-.04A12.2,12.2,0,0,0,10,1.5,10.414,10.414,0,0,0,7.236,1.749Zm-1.165,8.38A3.929,3.929,0,1,1,10,14.057,3.934,3.934,0,0,1,6.071,10.129Zm1.5,0A2.429,2.429,0,1,0,10,7.7,2.431,2.431,0,0,0,7.571,10.129ZM14.5,6.5a1,1,0,0,1,.883-.993L15.5,5.5a1,1,0,0,1,.117,1.993L15.5,7.5A1,1,0,0,1,14.5,6.5Z" transform="translate(0 0)" fill="#2b2e4a"/>
  </g>
</svg>
