<svg id="Iconly_Light-Outline_Chat" xmlns="http://www.w3.org/2000/svg" width="24" height="24" viewBox="0 0 24 24">
  <g id="Chat" transform="translate(1 1)">
    <path id="Combined_Shape" d="M6.219,20.5a3.584,3.584,0,0,0-1.105-.329,4.306,4.306,0,0,0-1.193.3,5.01,5.01,0,0,1-1.563.355,1.628,1.628,0,0,1-1.206-.482c-.8-.8-.432-1.889-.134-2.761a4.282,4.282,0,0,0,.3-1.21,3.492,3.492,0,0,0-.338-1.135A10.749,10.749,0,1,1,18.349,18.35a10.635,10.635,0,0,1-3.532,2.343,10.8,10.8,0,0,1-4.093.8A10.655,10.655,0,0,1,6.219,20.5Zm.6-1.377a9.341,9.341,0,0,0,7.441.175,9.155,9.155,0,0,0,3.033-2.012A9.25,9.25,0,1,0,2.355,14.648a4.749,4.749,0,0,1,.46,1.729,5.388,5.388,0,0,1-.378,1.693l0,.007c-.145.426-.364,1.068-.222,1.21a.226.226,0,0,0,.163.046,4.222,4.222,0,0,0,1.034-.269l.022-.007.026-.009a5.385,5.385,0,0,1,1.652-.373A4.641,4.641,0,0,1,6.815,19.128Zm6.878-7.965a1,1,0,0,1,.995-1H14.7a1,1,0,1,1-1,1Zm-4.009,0a1,1,0,0,1,1-1h.009a1,1,0,1,1-1,1Zm-4.009,0a1,1,0,0,1,.995-1h.009a1,1,0,1,1-1,1Z" transform="translate(0 0)" fill="#2b2e4a"/>
  </g>
</svg>
