<svg id="Iconly_Light-Outline_Delete" data-name="Iconly/Light-Outline/Delete" xmlns="http://www.w3.org/2000/svg" width="24" height="24" viewBox="0 0 24 24">
  <g id="Delete" transform="translate(3 2)">
    <path id="Combined_Shape" data-name="Combined Shape" d="M5.263,19.958a2.967,2.967,0,0,1-3.018-2.829c-.315-2.84-.854-9.534-.859-9.6a.749.749,0,0,1,.687-.808.771.771,0,0,1,.808.688c0,.068.543,6.738.855,9.557a1.472,1.472,0,0,0,1.558,1.494c2.5.052,5.051.056,7.8.005a1.5,1.5,0,0,0,1.625-1.507c.311-2.794.851-9.482.856-9.55a.768.768,0,0,1,.807-.688.752.752,0,0,1,.688.808c-.006.068-.548,6.779-.86,9.594a2.977,2.977,0,0,1-3.09,2.842C11.79,19.986,10.5,20,9.247,20,7.891,20,6.571,19.985,5.263,19.958ZM14.441,4.989H.75a.75.75,0,1,1,0-1.5H4.018a.9.9,0,0,0,.88-.723l.243-1.216A2.043,2.043,0,0,1,7.113,0h4.233a2.033,2.033,0,0,1,1.962,1.506l.254,1.261a.9.9,0,0,0,.879.723h3.268a.75.75,0,1,1,0,1.5Zm-2.222-1.5a2.388,2.388,0,0,1-.128-.428l-.243-1.216a.525.525,0,0,0-.5-.346H7.113a.529.529,0,0,0-.512.391l-.233,1.17a2.38,2.38,0,0,1-.128.428Z" transform="translate(0 0)" fill="#ffa096"/>
  </g>
</svg>
