<svg id="Iconly_Light-Outline_Edit" data-name="Iconly/Light-Outline/Edit" xmlns="http://www.w3.org/2000/svg" width="24" height="24" viewBox="0 0 24 24">
  <g id="Edit" transform="translate(2 3)">
    <path id="Combined_Shape" data-name="Combined Shape" d="M11.5,18.94a.75.75,0,0,1,0-1.5h7.253a.75.75,0,0,1,0,1.5Zm-9.884,0a.749.749,0,0,1-.731-.577L.064,14.891a2.373,2.373,0,0,1,.461-2.037L9.944,1.073l.007-.009,0,0A3.006,3.006,0,0,1,14.116.653l1.7,1.326.018.014A2.8,2.8,0,0,1,17.1,3.767a2.87,2.87,0,0,1-.368,2.2c-.018.028-.036.055-1.865,2.347a.747.747,0,0,1-.131.164c-1.366,1.712-3.677,4.6-7.59,9.5a2.445,2.445,0,0,1-1.886.914l-3.639.046ZM1.7,13.792a.877.877,0,0,0-.171.755l.68,2.884,3.039-.038a.944.944,0,0,0,.733-.352c1.933-2.418,5.04-6.306,7.178-8.982L8.9,4.788Zm12.4-6.9c.82-1.027,1.36-1.7,1.41-1.769a1.351,1.351,0,0,0,.141-1,1.406,1.406,0,0,0-.652-.887c-.059-.04-1.265-.976-1.779-1.375l-.029-.022a1.512,1.512,0,0,0-.942-.331,1.473,1.473,0,0,0-1.13.519l-1.279,1.6Z" fill="#ffa096"/>
  </g>
</svg>
