<svg id="Iconly_Light-Outline_Message" data-name="Iconly/Light-Outline/Message" xmlns="http://www.w3.org/2000/svg" width="24" height="24" viewBox="0 0 24 24">
  <g id="Message" transform="translate(1 1)">
    <path id="Combined_Shape" data-name="Combined Shape" d="M15.659,19.5H5.822a5.526,5.526,0,0,1-3.985-1.62A6.544,6.544,0,0,1,0,13.188V6.32C0,2.717,2.511,0,5.841,0h9.818C18.989,0,21.5,2.717,21.5,6.32v6.868a6.547,6.547,0,0,1-1.837,4.693,5.529,5.529,0,0,1-3.988,1.62Zm.009-1.5h.007A4.049,4.049,0,0,0,18.6,16.817a5.051,5.051,0,0,0,1.4-3.63V6.32c0-2.793-1.825-4.82-4.341-4.82H5.841C3.326,1.5,1.5,3.527,1.5,6.32v6.868a5.054,5.054,0,0,0,1.4,3.63A4.049,4.049,0,0,0,5.825,18h9.838ZM8.883,10.8,4.4,7.186a.75.75,0,1,1,.94-1.168L9.82,9.63a1.545,1.545,0,0,0,1.923,0L16.179,6.02a.75.75,0,1,1,.947,1.164L12.682,10.8a3.04,3.04,0,0,1-3.8.006Z" transform="translate(0 1)" fill="#ff422d"/>
  </g>
</svg>
