<svg id="Iconly_Light-Outline_Filter" data-name="Iconly/Light-Outline/Filter" xmlns="http://www.w3.org/2000/svg" width="24" height="24" viewBox="0 0 24 24">
  <g id="Filter" transform="translate(3 4)">
    <path id="Combined_Shape" data-name="Combined Shape" d="M11.274,12.8a3.113,3.113,0,1,1,3.114,3.1A3.108,3.108,0,0,1,11.274,12.8Zm1.5,0a1.613,1.613,0,1,0,1.614-1.6A1.607,1.607,0,0,0,12.775,12.8Zm-12,.788a.75.75,0,0,1,0-1.5h6.3a.75.75,0,0,1,0,1.5ZM0,3.1a3.113,3.113,0,1,1,3.113,3.1A3.109,3.109,0,0,1,0,3.1Zm1.5,0A1.613,1.613,0,1,0,3.113,1.5,1.606,1.606,0,0,0,1.5,3.1Zm8.391.8a.75.75,0,0,1,0-1.5h6.3a.75.75,0,0,1,0,1.5Z"/>
  </g>
</svg>
