<svg id="Iconly_Light-Outline_Home" xmlns="http://www.w3.org/2000/svg" width="24" height="24" viewBox="0 0 24 24">
  <g id="Home" transform="translate(2 1)">
    <path id="Fill_1" d="M16.277,21.506H14.353A1.973,1.973,0,0,1,12.4,19.536V16.46a.677.677,0,0,0-.684-.669H8.831a.675.675,0,0,0-.674.669v3.066a.742.742,0,0,1-.031.215,1.983,1.983,0,0,1-1.979,1.764H4.223A4.211,4.211,0,0,1,0,17.317V8.6A3.158,3.158,0,0,1,1.259,6.1L7.794.855a3.913,3.913,0,0,1,4.88,0L19.256,6.1A3.154,3.154,0,0,1,20.5,8.582v8.734A4.211,4.211,0,0,1,16.277,21.506ZM8.826,14.291h2.891A2.179,2.179,0,0,1,13.9,16.46v3.076a.472.472,0,0,0,.47.469h1.906A2.709,2.709,0,0,0,19,17.317V8.593a1.672,1.672,0,0,0-.667-1.309L11.74,2.026a2.416,2.416,0,0,0-3.01,0L2.181,7.282A1.684,1.684,0,0,0,1.5,8.61v8.707a2.709,2.709,0,0,0,2.723,2.688H6.147a.486.486,0,0,0,.491-.479.766.766,0,0,1,.019-.171v-2.9A2.182,2.182,0,0,1,8.826,14.291Z" transform="translate(0 0)" fill="#262841"/>
  </g>
</svg>
