<svg id="Iconly_Light-Outline_Call" data-name="Iconly/Light-Outline/Call" xmlns="http://www.w3.org/2000/svg" width="24" height="24" viewBox="0 0 24 24">
  <g id="Call" transform="translate(2 2)">
    <path id="Fill_1" data-name="Fill 1" d="M15.59,20.5h-.028c-2.493,0-5.742-1.985-9.658-5.9C1.971,10.67-.015,7.41,0,4.914A3.72,3.72,0,0,1,1.2,2.1c.014-.017.056-.059.08-.083L1.294,2C2.716.581,3.683,0,4.631,0h.026C5.774.015,6.569.851,7.575,1.909c.252.267.523.552.82.848a2.957,2.957,0,0,1,.71,3.606c-.364,1.043-.679,1.943,1.207,3.83a3.931,3.931,0,0,0,2.609,1.482,3.616,3.616,0,0,0,1.218-.278,4.412,4.412,0,0,1,1.463-.324A3.016,3.016,0,0,1,17.746,12.1c.3.3.585.571.836.81,1.064,1.011,1.9,1.81,1.918,2.93.012.954-.568,1.928-2,3.361l-.635-.43.536.525A3.725,3.725,0,0,1,15.59,20.5ZM2.357,3.063c-.009.011-.055.058-.109.112A2.244,2.244,0,0,0,1.5,4.922c-.008,1.431.933,4.089,5.464,8.618C11.478,18.053,14.131,19,15.561,19h.021a2.258,2.258,0,0,0,1.744-.744,2.4,2.4,0,0,1,.174-.166c1-1.007,1.506-1.756,1.5-2.226-.006-.486-.61-1.061-1.446-1.857L17.548,14c-.271-.257-.56-.533-.863-.836a1.551,1.551,0,0,0-1.093-.591,3.074,3.074,0,0,0-.957.239,5.013,5.013,0,0,1-1.712.366,5.372,5.372,0,0,1-3.671-1.926C6.7,8.7,7.271,7.065,7.689,5.87c.3-.863.44-1.257-.354-2.052-.284-.284-.537-.549-.781-.805l-.065-.069-.006-.007c-.79-.83-1.36-1.43-1.844-1.437H4.63c-.478,0-1.221.51-2.272,1.561,0,0,0,0,0,0Z" transform="translate(0 0)" fill="#ff422d"/>
  </g>
</svg>
