<svg id="Iconly_Light-Outline_Profile" xmlns="http://www.w3.org/2000/svg" width="24" height="24" viewBox="0 0 24 24">
  <g id="Profile" transform="translate(4 2)">
    <path id="Combined_Shape" d="M0,16.174c0-3.3,4.521-3.677,7.921-3.677,1.958,0,7.919,0,7.919,3.7,0,3.295-4.52,3.677-7.919,3.677C5.962,19.87,0,19.87,0,16.174Zm1.5,0c0,1.458,2.16,2.2,6.421,2.2s6.419-.733,6.419-2.177S12.18,14,7.921,14,1.5,14.729,1.5,16.174Zm6.389-5.555A5.31,5.31,0,0,1,7.921,0a5.31,5.31,0,0,1,0,10.619ZM4.038,5.31A3.873,3.873,0,0,0,7.892,9.192l.029.715V9.192A3.882,3.882,0,1,0,4.038,5.31Z" transform="translate(0 0)"/>
  </g>
</svg>
