<svg id="Iconly_Bold_Star" data-name="Iconly/Bold/Star" xmlns="http://www.w3.org/2000/svg" width="42" height="42" viewBox="0 0 42 42">
  <g id="Star" transform="translate(3.499 4.375)">
    <path id="Star-2" data-name="Star" d="M27.858,20.685a1.926,1.926,0,0,0-.558,1.7l1.556,8.61a1.89,1.89,0,0,1-.788,1.89,1.927,1.927,0,0,1-2.047.14L18.27,28.98a1.979,1.979,0,0,0-.875-.229h-.474a1.421,1.421,0,0,0-.472.157L8.7,32.97a2.045,2.045,0,0,1-1.243.193A1.945,1.945,0,0,1,5.9,30.938l1.557-8.61a1.958,1.958,0,0,0-.558-1.713L.576,14.49A1.889,1.889,0,0,1,.1,12.512,1.965,1.965,0,0,1,1.661,11.2l8.7-1.262A1.946,1.946,0,0,0,11.9,8.873l3.832-7.858a1.821,1.821,0,0,1,.35-.472L16.238.42A1.175,1.175,0,0,1,16.52.192l.191-.07.3-.123h.737a1.957,1.957,0,0,1,1.54,1.05l3.883,7.823a1.945,1.945,0,0,0,1.453,1.066l8.7,1.262a1.984,1.984,0,0,1,1.592,1.313A1.9,1.9,0,0,1,34.4,14.49Z" fill="#ffd9d5"/>
  </g>
</svg>
